<?xml version="1.0" encoding="UTF-8" standalone="no"?>
<!-- Uploaded to: SVG Repo, www.svgrepo.com, Generator: SVG Repo Mixer Tools -->

<svg
   version="1.1"
   id="Layer_1"
   viewBox="0 0 453.207 453.207"
   xml:space="preserve"
   width="512"
   height="512"
   sodipodi:docname="logo.svg"
   inkscape:version="1.1.2 (0a00cf5339, 2022-02-04)"
   xmlns:inkscape="http://www.inkscape.org/namespaces/inkscape"
   xmlns:sodipodi="http://sodipodi.sourceforge.net/DTD/sodipodi-0.dtd"
   xmlns="http://www.w3.org/2000/svg"
   xmlns:svg="http://www.w3.org/2000/svg">
<defs id="defs23"></defs>
<sodipodi:namedview
   id="namedview21"
   pagecolor="#ffffff"
   bordercolor="#666666"
   borderopacity="1.0"
   inkscape:pageshadow="2"
   inkscape:pageopacity="0.0"
   inkscape:pagecheckerboard="0"
   showgrid="false"
   inkscape:zoom="1.7050781"
   inkscape:cx="256"
   inkscape:cy="256"
   inkscape:window-width="3840"
   inkscape:window-height="2096"
   inkscape:window-x="0"
   inkscape:window-y="27"
   inkscape:window-maximized="1"
   inkscape:current-layer="Layer_1" />
<path
   style="fill:#aad400"
   d="m 315.317,248.633 c 23.66,23.24 39.33,55.78 39.33,91.81 0,70.65 -57.58,105.26 -128.22,105.26 -70.65,0 -127.87,-34.61 -127.87,-105.26 0,-36.24 14.47,-68.95 38.95,-92.22 16.68,-15.86 26.01,-37.63 26.01,-60.65 v -0.37 c 0,-35.34 29.73,-63.85 65.36,-62.58 33.93,1.2 60.78,30.12 60.78,64.08 0,22.65 9.5,44.06 25.66,59.93 z"
   id="path2" />
<path
   style="fill:#88aa00"
   d="m 189.267,248.223 c -10.26,23.27 -16.32,55.98 -16.32,92.22 0,70.57 23.93,105.18 53.48,105.26 -70.65,0 -127.87,-34.61 -127.87,-105.26 0,-36.24 14.47,-68.95 38.95,-92.22 16.68,-15.86 26.01,-37.63 26.01,-60.65 v -0.37 c 0,-34.58 28.47,-62.62 63.07,-62.62 -14.5,0.01 -26.42,28.05 -26.42,62.62 v 0.37 c 0,23.019 -3.91,44.79 -10.9,60.65 z"
   id="path4" />
<path
   style="fill:#9ad14b"
   d="m 232.137,100.502 c -51.37,0 -93.01,-41.64 -93.01,-93 25.68,0 48.94,10.41 65.77,27.24 16.83,16.831 27.24,40.081 27.24,65.76 z"
   id="path6" />
<path
   style="fill:#90bc42"
   d="m 232.137,100.502 -93.01,-93 c 25.68,0 48.94,10.41 65.77,27.24 16.83,16.831 27.24,40.081 27.24,65.76 z"
   id="path8" />
<path
   style="fill:#ffffff"
   d="m 320.783,389.63 c -1.347,0 -2.711,-0.363 -3.941,-1.125 -3.521,-2.18 -4.609,-6.803 -2.428,-10.325 6.458,-10.43 9.732,-23.127 9.732,-37.738 0,-25.665 -11.008,-51.197 -30.201,-70.049 -15.293,-15.018 -26.107,-33.602 -31.272,-53.742 -1.029,-4.013 1.39,-8.099 5.402,-9.128 4.011,-1.025 8.099,1.39 9.128,5.402 4.485,17.492 13.909,33.664 27.252,46.767 22.046,21.655 34.69,51.088 34.69,80.751 0,17.443 -4.03,32.796 -11.979,45.635 -1.418,2.291 -3.871,3.552 -6.383,3.552 z"
   id="path10" />
<path
   style="fill:#ffffff"
   d="m 266.656,196.203 c -4.142,0 -7.5,-3.358 -7.5,-7.5 0,-17.915 -14.07,-32.988 -31.364,-33.6 -0.405,-0.014 -0.807,-0.021 -1.206,-0.021 -4.142,0 -7.5,-3.358 -7.5,-7.5 0,-4.142 3.358,-7.5 7.5,-7.5 0.577,0 1.157,0.01 1.739,0.031 25.27,0.894 45.831,22.691 45.831,48.59 0,4.142 -3.357,7.5 -7.5,7.5 z"
   id="path12" />
<circle
   style="fill:#ffffff"
   cx="303.37799"
   cy="401.427"
   r="7.5"
   id="circle14" />
<path
   style="fill:#333333"
   d="m 320.569,243.284 c -15.095,-14.826 -23.409,-34.209 -23.409,-54.578 0,-35.139 -25.91,-65.141 -59.32,-70.688 v -1.395 c 0,-20.846 16.729,-37.805 37.293,-37.805 4.142,0 7.5,-3.358 7.5,-7.5 0,-4.142 -3.358,-7.5 -7.5,-7.5 -14.095,0 -27.28,5.507 -37.124,15.508 -0.175,0.178 -0.338,0.365 -0.51,0.544 C 227.956,34.317 187.477,0 139.129,0 c -4.142,0 -7.5,3.358 -7.5,7.5 0,52.542 40.531,95.791 91.968,100.137 -0.492,2.94 -0.757,5.941 -0.757,8.986 v 0.568 c -17.024,0.88 -32.945,7.754 -45.379,19.754 -13.826,13.344 -21.441,31.192 -21.441,50.259 v 0.369 c 0,21.084 -8.412,40.693 -23.686,55.215 -26.616,25.307 -41.274,59.987 -41.274,97.653 0,35.695 13.976,65.125 40.417,85.109 23.939,18.094 56.771,27.657 94.947,27.657 38.2,0 71.091,-9.561 95.116,-27.648 26.566,-20.001 40.608,-49.435 40.608,-85.118 -0.001,-35.793 -15.156,-71.205 -41.579,-97.157 z M 146.987,15.358 c 40.893,3.741 73.546,36.395 77.287,77.287 C 183.382,88.904 150.728,56.25 146.987,15.358 Z m 79.436,422.849 c -58.188,0 -120.363,-25.683 -120.363,-97.767 0,-33.515 13.002,-64.335 36.61,-86.782 18.281,-17.381 28.35,-40.851 28.35,-66.086 v -0.369 c 0,-14.958 5.987,-28.974 16.857,-39.465 10.511,-10.144 24.181,-15.662 38.688,-15.662 0.679,0 1.36,0.012 2.042,0.036 29.529,1.05 53.553,26.437 53.553,56.592 0,24.427 9.908,47.61 27.898,65.279 23.57,23.15 37.089,54.662 37.089,86.456 0,72.085 -62.362,97.768 -120.724,97.768 z"
   id="path16" />
</svg>
